<svg width="45" height="44" viewBox="0 0 45 44" fill="none" xmlns="http://www.w3.org/2000/svg">
<path d="M2.02441 1.90605H1.33476V2.5957V11.3683C1.33476 11.3683 1.33476 11.3683 1.33476 11.3683C1.33467 13.4761 1.75204 15.5631 2.56293 17.5103C3.37383 19.4574 4.56232 21.2264 6.06035 22.7162C7.55838 24.2061 9.3366 25.3877 11.2934 26.1937C13.2501 26.9997 15.3472 27.4144 17.4649 27.4142C17.4649 27.4142 17.465 27.4142 17.465 27.4142H26.9399H27.6296V26.7246V17.952C27.6296 17.952 27.6296 17.952 27.6296 17.952C27.6297 15.8443 27.2124 13.7574 26.4016 11.8103C25.5907 9.86326 24.4024 8.09436 22.9045 6.60452C21.4066 5.11469 19.6286 3.93308 17.672 3.12698C15.7154 2.32089 13.6184 1.90605 11.5008 1.90605H2.02441Z" stroke="#3B8361" stroke-width="1.37931"/>
<path d="M2.02441 1.90605H1.33476V2.5957V11.3683C1.33476 11.3683 1.33476 11.3683 1.33476 11.3683C1.33467 13.4761 1.75204 15.5631 2.56293 17.5103C3.37383 19.4574 4.56232 21.2264 6.06035 22.7162C7.55838 24.2061 9.3366 25.3877 11.2934 26.1937C13.2501 26.9997 15.3472 27.4144 17.4649 27.4142C17.4649 27.4142 17.465 27.4142 17.465 27.4142H26.9399H27.6296V26.7246V17.952C27.6296 17.952 27.6296 17.952 27.6296 17.952C27.6297 15.8443 27.2124 13.7574 26.4016 11.8103C25.5907 9.86326 24.4024 8.09436 22.9045 6.60452C21.4066 5.11469 19.6286 3.93308 17.672 3.12698C15.7154 2.32089 13.6184 1.90605 11.5008 1.90605H2.02441Z" stroke="#3B8361" stroke-width="1.37931"/>
<path d="M2.02441 1.90605H1.33476V2.5957V11.3683C1.33476 11.3683 1.33476 11.3683 1.33476 11.3683C1.33467 13.4761 1.75204 15.5631 2.56293 17.5103C3.37383 19.4574 4.56232 21.2264 6.06035 22.7162C7.55838 24.2061 9.3366 25.3877 11.2934 26.1937C13.2501 26.9997 15.3472 27.4144 17.4649 27.4142C17.4649 27.4142 17.465 27.4142 17.465 27.4142H26.9399H27.6296V26.7246V17.952C27.6296 17.952 27.6296 17.952 27.6296 17.952C27.6297 15.8443 27.2124 13.7574 26.4016 11.8103C25.5907 9.86326 24.4024 8.09436 22.9045 6.60452C21.4066 5.11469 19.6286 3.93308 17.672 3.12698C15.7154 2.32089 13.6184 1.90605 11.5008 1.90605H2.02441Z" fill="#CEFFE5" fill-opacity="0.7" stroke="#3B8361" stroke-width="1.37931"/>
<path d="M1 30.606C1 23.1656 7.03159 17.0562 14.4719 17.0562H27.6341V30.683C27.6341 38.0378 21.6719 44 14.3171 44C6.96225 44 1 37.9608 1 30.606Z" fill="#CEFFE5"/>
<path d="M18.3096 17.0983H17.6374L17.6202 17.7703L17.395 26.5429L17.3948 26.5517L17.3948 26.5605C17.3947 28.6683 17.8121 30.7554 18.623 32.7025C19.4339 34.6497 20.6224 36.4186 22.1204 37.9085C23.6184 39.3984 25.3967 40.5799 27.3534 41.3859C29.3102 42.1919 31.4073 42.6066 33.525 42.6065C33.525 42.6065 33.525 42.6065 33.525 42.6065H43H43.6896V41.9168V33.1443C43.6896 33.1443 43.6896 33.1442 43.6896 33.1442C43.6897 31.0366 43.2724 28.9496 42.4616 27.0026C41.6508 25.0555 40.4624 23.2866 38.9646 21.7968C37.4667 20.3069 35.6886 19.1253 33.732 18.3192C31.7754 17.5132 29.6785 17.0983 27.5609 17.0983H18.3096Z" stroke="#3B8361" stroke-width="1.37931"/>
<path d="M18.3096 17.0983H17.6374L17.6202 17.7703L17.395 26.5429L17.3948 26.5517L17.3948 26.5605C17.3947 28.6683 17.8121 30.7554 18.623 32.7025C19.4339 34.6497 20.6224 36.4186 22.1204 37.9085C23.6184 39.3984 25.3967 40.5799 27.3534 41.3859C29.3102 42.1919 31.4073 42.6066 33.525 42.6065C33.525 42.6065 33.525 42.6065 33.525 42.6065H43H43.6896V41.9168V33.1443C43.6896 33.1443 43.6896 33.1442 43.6896 33.1442C43.6897 31.0366 43.2724 28.9496 42.4616 27.0026C41.6508 25.0555 40.4624 23.2866 38.9646 21.7968C37.4667 20.3069 35.6886 19.1253 33.732 18.3192C31.7754 17.5132 29.6785 17.0983 27.5609 17.0983H18.3096Z" fill="#CEFFE5" fill-opacity="0.7" stroke="#3B8361" stroke-width="1.37931"/>
<path d="M43.4678 2.52909L43.4827 1.83959L42.7932 1.82491L34.0096 1.63789C34.0096 1.63789 34.0095 1.63788 34.0095 1.63788C31.9001 1.59288 29.8023 1.96231 27.8359 2.72515C25.8694 3.48799 24.0729 4.62933 22.5488 6.08412C21.0247 7.53891 19.803 9.27866 18.9535 11.2041C18.104 13.1295 17.6434 15.2028 17.5982 17.3055C17.5982 17.3056 17.5982 17.3056 17.5982 17.3056L17.3949 26.7067L17.38 27.3962L18.0695 27.4109L26.8531 27.5979C28.9625 27.6429 31.0602 27.2736 33.0265 26.5108C34.9928 25.748 36.7893 24.6068 38.3134 23.1522C39.8375 21.6976 41.0592 19.958 41.9088 18.0327C42.7583 16.1075 43.219 14.0343 43.2645 11.9316L43.4678 2.52909Z" fill="#CEFFE5" fill-opacity="0.5" stroke="#3B8361" stroke-width="1.37931"/>
<path d="M43.4678 2.52909L43.4827 1.83959L42.7932 1.82491L34.0096 1.63789C34.0096 1.63789 34.0095 1.63788 34.0095 1.63788C31.9001 1.59288 29.8023 1.96231 27.8359 2.72515C25.8694 3.48799 24.0729 4.62933 22.5488 6.08412L23.0249 6.58291L22.5488 6.08412C21.0247 7.53891 19.803 9.27865 18.9535 11.2041C18.104 13.1295 17.6434 15.2028 17.5982 17.3055C17.5982 17.3056 17.5982 17.3056 17.5982 17.3056L17.3949 26.7067L17.38 27.3962L18.0695 27.4109L26.8531 27.5979C28.9625 27.6429 31.0602 27.2736 33.0265 26.5108C34.9928 25.748 36.7893 24.6068 38.3134 23.1522C39.8375 21.6976 41.0592 19.958 41.9088 18.0327C42.7583 16.1075 43.219 14.0343 43.2645 11.9316L43.4678 2.52909Z" stroke="#3B8361" stroke-width="1.37931"/>
<path d="M2.02441 1.90605L1.33476 1.90605L1.33476 2.5957L1.33476 11.3683C1.33476 11.3683 1.33476 11.3683 1.33476 11.3683C1.33467 13.4761 1.75204 15.5631 2.56293 17.5103C3.37383 19.4574 4.56232 21.2264 6.06035 22.7162C7.55838 24.2061 9.3366 25.3877 11.2934 26.1937C13.2501 26.9997 15.3472 27.4144 17.4649 27.4142C17.4649 27.4142 17.465 27.4142 17.465 27.4142L26.9399 27.4142L27.6296 27.4142L27.6296 26.7246L27.6296 17.952C27.6296 17.952 27.6296 17.952 27.6296 17.952C27.6297 15.8443 27.2124 13.7574 26.4016 11.8103C25.5907 9.86326 24.4024 8.09436 22.9045 6.60452C21.4066 5.11469 19.6286 3.93308 17.672 3.12698C15.7154 2.32089 13.6184 1.90605 11.5008 1.90605L2.02441 1.90605Z" stroke="#3B8361" stroke-width="1.37931"/>
<circle cx="11.7228" cy="32.8864" r="2.82648" transform="rotate(42.3094 11.7228 32.8864)" fill="#72AC4E"/>
<circle cx="8.91421" cy="33.711" r="2.82648" transform="rotate(42.3094 8.91421 33.711)" fill="#ABD040"/>
<circle cx="11.1251" cy="35.7234" r="2.82648" transform="rotate(42.3094 11.1251 35.7234)" fill="#78BD58"/>
<path fill-rule="evenodd" clip-rule="evenodd" d="M9.62164 30.9722C10.0462 31.0848 10.4509 31.2989 10.7988 31.6168C12.0186 32.554 12.0372 34.4553 10.9864 35.6097C10.9847 35.6116 10.983 35.6135 10.9813 35.6154C10.5557 35.5031 10.1502 35.2895 9.80223 34.9727C8.64782 33.9219 8.56381 32.1343 9.61458 30.9799C9.61693 30.9773 9.61928 30.9747 9.62164 30.9722Z" fill="#327450"/>
<path fill-rule="evenodd" clip-rule="evenodd" d="M9.06201 33.8205C10.1147 32.6811 11.8913 32.6027 13.0404 33.6486C13.4047 33.9802 13.6623 34.3852 13.8114 34.8204C12.7588 35.9598 10.9822 36.0383 9.83307 34.9923C9.46879 34.6607 9.2111 34.2558 9.06201 33.8205Z" fill="#185C3C"/>
<path fill-rule="evenodd" clip-rule="evenodd" d="M8.39503 36.4985C9.33157 36.6696 10.3314 36.373 11.0177 35.6255C11.7039 34.8781 11.908 33.8632 11.6483 32.9548C10.7118 32.7837 9.71192 33.0803 9.02571 33.8278C8.33947 34.5753 8.1354 35.5901 8.39503 36.4985Z" fill="#4E9F5B"/>
<path d="M11.0245 35.6146C9.78874 35.2983 9.15226 34.2999 9.03742 33.8296C9.75671 32.8681 11.1077 32.8367 11.6546 32.9405C12.0145 34.4947 11.3394 35.3105 11.0245 35.6146Z" fill="#3B8361" stroke="#185C3C" stroke-width="0.0343945"/>
</svg>
